<svg xmlns="http://www.w3.org/2000/svg" width="250" height="250" viewBox="0 0 250 250">
<!-- SVG created with Arrow, by QuiverAI (https://quiver.ai) -->
  <path d="m2.5 125.2c0-67.29 55.54-122.7 122.1-122.7 67.19 0 122.9 54.25 122.9 122.7 0 66.87-55.13 122.3-123.9 122.3-66.9 0-121.1-54.29-121.1-122.3z" fill="#231F20"/>
  <path d="m13.63 125.2c0-61.34 51.58-111.5 110.1-111.5 62.98 0 112.2 50.6 112.2 111.4 0 61.03-49.09 109.9-112.6 109.9-61.28 0-109.7-49.42-109.7-109.8z" fill="#FFD100"/>
  <path d="m124.6 247.2c-67.21 0-122.4-53.76-122.4-122 0-67.73 55-123 121.9-123 67.89 0 123.6 55.15 123.6 122.7 0 67.86-54.94 122.3-123.1 122.3zm-0.43-244.4c-66.55 0-121.4 54.96-121.4 122.4 0 67.65 54.81 121.5 121.8 121.5 67.87 0 122.6-54.11 122.6-121.7 0-67.19-55.4-122.1-123-122.1z" fill="#231F20"/>
  <path d="m117.7 42.07c9.71-4.79 18.38-8.76 34.87-8.76 9.73 0 15.6 1.39 19.75 3.56l-0.48 0.34c-8.83 4.22-17.63 10.95-22.44 13.6 8.7 0 19.88 3.18 21.49 4.69l-0.08 0.11c-8.9 9.92-16.75 19.55-24.04 22.65 6.68 1.59 15.51 7.93 16.85 9.43-1.42 2.25-5.1 4.6-7.44 5.56 16.12 5.12 35.06 11.92 51.47 20.27 1.14 7.74-0.06 18.57-4 26.78-3.57 6.71-6.4 13.3-6.05 21.84 0.14 3.54 2.1 6.57 3.08 8.16 0.97 2.17-1.28 5.58-9.55 15.11-8.88 10.35-14.18 16.34-14.18 20.52l-22.27-0.02 7.4-8.98 4.06-0.39c7.79-6.88 17.64-17.78 19.26-23.03-7.76-2.32-17.23-14.3-21.13-19.13-11.89 8.16-36.46 22.5-49.87 25.04l-4.23-6.33c-2.97 6.69-4.87 13.67-5.11 19.37l-5.7-5.16c-2.54 6.98-4.36 15.73-4.52 18.65l-21.34 0.06 7.7-8.89 5-0.61c1.33-1.82 2.6-7.43 2.83-9.98l-4.83 6.09c-1.03-10.61-5.25-22.52-9.66-26.55 1.54 4.42-1.24 9.94-3.18 12.66-1.73-3.17-5.11-4.77-6.19-5.49-0.31 4.2-3.85 10.62-11.57 12.01 2.66-6.52 1.85-14.64-3.6-16.39-2.9-0.18-6.07-0.19-8.62-2.03-2.47-1.71-4.18-21.22-4.18-21.22-3.93-10.69-5.13-22.47-1.88-29.64 3.42-7.21 11.53-12 19.95-12.32 7.21-0.28 10.76-0.04 16.87 2.25 2.66-12.09 9.86-21.99 18.9-23.31 0.89-4.18-1.87-12.22-2.99-15.17-0.89-3.96-0.28-9.4 3.22-13.47 7.2-8.2 18.5-16.74 31.64-26.04l-5.21 14.16z" fill="#231F20"/>
  <path d="m153.4 39.09c-16.12-0.12-35.76 8.27-46.53 15.71l-1.9 12.01c8.27-8.39 30.97-21.52 48.43-27.72z" fill="#A7A9AC"/>
  <path d="m131.4 57.6c7.95-0.44 21.32 0.58 24.94 1.79-7.02 8.39-14.22 12.69-34.98 26.13l7.88-6.02c6.83 0.76 16.56 4.94 20.81 9.25-7.14 6.33-16.43 13.32-24.03 13.88 0.5 3.18 4.21 5.92 6.11 6.4-8.03 1.41-22.11-0.72-35.84-5.12 1.94-6.98 4.53-13.69 4.13-18.79-0.52-5.4-4.93-14.96-5.17-17.76-0.66-7.3 7.61-15.08 14.64-22.64l-3.67 13.19c8.58-6.8 27.72-16.6 47.22-18.82-8.27 5.12-19.31 14.16-28.79 27.17 7.02-3.4 16.5-7.23 31.74-6.92-2.77-1.58-15.72-2.26-24.99-1.74z" fill="#FEFEFE"/>
  <path d="m129.2 79.5c6.83 0.76 16.56 4.94 20.81 9.25-8.42-2.11-19.92-3.07-28.8-3.14l7.99-6.11z" fill="#A7A9AC"/>
  <path d="m156.9 152.3c-11.89 3.21-29.79 8.52-43.36 13.39l4.33 5.8c7.23-1.37 28.31-12.73 39.03-19.19z" fill="#A7A9AC"/>
  <path d="m62.81 107.2c0.48-0.16 0.41 3.83 0.15 6.88-0.95 8.65-6.07 14.36-10.05 13.72-2.82-0.16-5.83-0.2-7.4-0.08-2.25 0.3-2.13 3.92-1.38 5.07 1.06 1.38 5 1.15 6.13 1.03 8.96-0.79 11.93-8.27 12.68-18.89 0.25-3.09 0.28-6.2-0.13-7.73z" fill="#A7A9AC"/>
  <path d="m45.51 126.8c2.25-0.32 2.74-0.2 5.13-0.4 5.37-0.4 11.08-9.51 12.18-19.32 0.8 4.3-0.74 15.04-6.34 21.03-2.77 2.8-9.37 2.37-11.23 2.17-1.66-0.24-2.04-3.05 0.26-3.48z" fill="#FEFEFE"/>
  <path d="m51.58 139-6.75 2.47-1.34 2.8 0.32 0.88 7.36-3.18 0.41-2.97z" fill="#FEFEFE"/>
</svg>