<?xml version="1.0" encoding="UTF-8" standalone="no"?>
<!DOCTYPE svg PUBLIC "-//W3C//DTD SVG 1.1//EN" "http://www.w3.org/Graphics/SVG/1.1/DTD/svg11.dtd">
<svg width="100%" height="100%" viewBox="0 0 250 250" version="1.1" xmlns="http://www.w3.org/2000/svg" xmlns:xlink="http://www.w3.org/1999/xlink" xml:space="preserve" xmlns:serif="http://www.serif.com/" style="fill-rule:evenodd;clip-rule:evenodd;stroke-linejoin:round;stroke-miterlimit:2;">
    <path d="M2.5,125.2C2.5,57.91 58.04,2.5 124.6,2.5C191.79,2.5 247.5,56.75 247.5,125.2C247.5,192.07 192.37,247.5 123.6,247.5C56.7,247.5 2.5,193.21 2.5,125.2Z" style="fill:rgb(35,31,32);fill-rule:nonzero;"/>
    <path d="M13.63,125.2C13.63,63.86 65.21,13.7 123.73,13.7C186.71,13.7 235.93,64.3 235.93,125.1C235.93,186.13 186.84,235 123.33,235C62.05,235 13.63,185.58 13.63,125.2Z" style="fill:white;fill-rule:nonzero;"/>
    <path d="M124.6,247.2C57.39,247.2 2.2,193.44 2.2,125.2C2.2,57.47 57.2,2.2 124.1,2.2C191.99,2.2 247.7,57.35 247.7,124.9C247.7,192.76 192.76,247.2 124.6,247.2ZM124.17,2.8C57.62,2.8 2.77,57.76 2.77,125.2C2.77,192.85 57.58,246.7 124.57,246.7C192.44,246.7 247.17,192.59 247.17,125C247.17,57.81 191.77,2.9 124.17,2.9L124.17,2.8Z" style="fill:rgb(35,31,32);fill-rule:nonzero;"/>
    <path d="M117.7,42.07C127.41,37.28 136.08,33.31 152.57,33.31C162.3,33.31 168.17,34.7 172.32,36.87L171.84,37.21C163.01,41.43 154.21,48.16 149.4,50.81C158.1,50.81 169.28,53.99 170.89,55.5L170.81,55.61C161.91,65.53 154.06,75.16 146.77,78.26C153.45,79.85 162.28,86.19 163.62,87.69C162.2,89.94 158.52,92.29 156.18,93.25C172.3,98.37 191.24,105.17 207.65,113.52C208.79,121.26 207.59,132.09 203.65,140.3C200.08,147.01 197.25,153.6 197.6,162.14C197.74,165.68 199.7,168.71 200.68,170.3C201.65,172.47 199.4,175.88 191.13,185.41C182.25,195.76 176.95,201.75 176.95,205.93L154.68,205.91L162.08,196.93L166.14,196.54C173.93,189.66 183.78,178.76 185.4,173.51C177.64,171.19 168.17,159.21 164.27,154.38C152.38,162.54 127.81,176.88 114.4,179.42L110.17,173.09C107.2,179.78 105.3,186.76 105.06,192.46L99.36,187.3C96.82,194.28 95,203.03 94.84,205.95L73.5,206.01L81.2,197.12L86.2,196.51C87.53,194.69 88.8,189.08 89.03,186.53L84.2,192.62C83.17,182.01 78.95,170.1 74.54,166.07C76.08,170.49 73.3,176.01 71.36,178.73C69.63,175.56 66.25,173.96 65.17,173.24C64.86,177.44 61.32,183.86 53.6,185.25C56.26,178.73 55.45,170.61 50,168.86C47.1,168.68 43.93,168.67 41.38,166.83C38.91,165.12 37.2,145.61 37.2,145.61C33.27,134.92 32.07,123.14 35.32,115.97C38.74,108.76 46.85,103.97 55.27,103.65C62.48,103.37 66.03,103.61 72.14,105.9C74.8,93.81 82,83.91 91.04,82.59C91.93,78.41 89.17,70.37 88.05,67.42C87.16,63.46 87.77,58.02 91.27,53.95C98.47,45.75 109.77,37.21 122.91,27.91L117.7,42.07Z" style="fill:rgb(35,31,32);fill-rule:nonzero;"/>
    <path d="M153.4,39.09C137.28,38.97 117.64,47.36 106.87,54.8L104.97,66.81C113.24,58.42 135.94,45.29 153.4,39.09Z" style="fill:rgb(167,169,172);fill-rule:nonzero;"/>
    <path d="M131.4,57.6C139.35,57.16 152.72,58.18 156.34,59.39C149.32,67.78 142.12,72.08 121.36,85.52L129.24,79.5C136.07,80.26 145.8,84.44 150.05,88.75C142.91,95.08 133.62,102.07 126.02,102.63C126.52,105.81 130.23,108.55 132.13,109.03C124.1,110.44 110.02,108.31 96.29,103.91C98.23,96.93 100.82,90.22 100.42,85.12C99.9,79.72 95.49,70.16 95.25,67.36C94.59,60.06 102.86,52.28 109.89,44.72L106.22,57.91C114.8,51.11 133.94,41.31 153.44,39.09C145.17,44.21 134.13,53.25 124.65,66.26C131.67,62.86 141.15,59.03 156.39,59.34C153.62,57.76 140.67,57.08 131.4,57.6Z" style="fill:rgb(254,254,254);fill-rule:nonzero;"/>
    <path d="M129.2,79.5C136.03,80.26 145.76,84.44 150.01,88.75C141.59,86.64 130.09,85.68 121.21,85.61L129.2,79.5Z" style="fill:rgb(167,169,172);fill-rule:nonzero;"/>
    <path d="M156.9,152.3C145.01,155.51 127.11,160.82 113.54,165.69L117.87,171.49C125.1,170.12 146.18,158.76 156.9,152.3Z" style="fill:rgb(167,169,172);fill-rule:nonzero;"/>
    <path d="M62.81,107.2C63.29,107.04 63.22,111.03 62.96,114.08C62.01,122.73 56.89,128.44 52.91,127.8C50.09,127.64 47.08,127.6 45.51,127.72C43.26,128.02 43.38,131.64 44.13,132.79C45.19,134.17 49.13,133.94 50.26,133.82C59.22,133.03 62.19,125.55 62.94,114.93C63.19,111.84 63.22,108.73 62.81,107.2Z" style="fill:rgb(167,169,172);fill-rule:nonzero;"/>
    <path d="M45.51,126.8C47.76,126.48 48.25,126.6 50.64,126.4C56.01,126 61.72,116.89 62.82,107.08C63.62,111.38 62.08,122.12 56.48,128.11C53.71,130.91 47.11,130.48 45.25,130.28C43.59,130.04 43.21,127.23 45.51,126.8Z" style="fill:rgb(254,254,254);fill-rule:nonzero;"/>
    <path d="M51.58,139L44.83,141.47L43.49,144.27L43.81,145.15L51.17,141.97L51.58,139Z" style="fill:rgb(254,254,254);fill-rule:nonzero;"/>
</svg>
