<svg xmlns="http://www.w3.org/2000/svg" fill="none" viewBox="0 0 150 22" height="22" width="150">
<path fill="#1D1D1E" d="M18.2943 21.9201H11.8317C12.1754 21.6069 12.4874 20.918 11.5821 19.3836L5.4321 10.0517V19.3524C5.4321 20.8241 6.0562 21.9201 6.0562 21.9201H0C0 21.9201 0.624359 20.8241 0.624359 19.3524V2.56799C0.624359 2.00411 0.530797 1.47195 0.405873 1.06457C0.156024 0.438307 0 0 0 0H6.46233C6.21275 0 6.11892 1.59699 6.71218 2.53653L12.8311 11.8055V2.56799C12.8311 1.0963 12.2067 0 12.2067 0H18.2632C18.2632 0 17.6389 1.09603 17.6389 2.56799V19.3524C17.6389 19.8219 17.7011 20.2605 17.7949 20.6362C18.0758 21.3877 18.2946 21.9199 18.2946 21.9199L18.2943 21.9201Z"></path>
<path fill="#1D1D1E" d="M34.8708 0C36.338 0 37.431 1.06457 37.431 2.53653V19.3524C37.431 20.8241 36.3383 21.9201 34.8708 21.9201H23.5072C22.0086 21.9201 20.9473 20.8241 20.9473 19.3524V2.53653C20.9473 1.06484 22.0086 0 23.5072 0H34.8708ZM31.4681 17.2227C32.1546 17.2227 32.7479 16.6591 32.7479 15.939V5.94993C32.7479 5.26101 32.1546 4.6974 31.4681 4.6974H26.9102C26.192 4.6974 25.6301 5.26101 25.6301 5.94993V15.939C25.6301 16.6594 26.1922 17.2227 26.9102 17.2227H31.4681Z"></path>
<path fill="#1D1D1E" d="M61.6546 21.9204C61.998 21.6071 61.998 20.8558 61.4048 19.3839L59.7815 15.3445H55.5357V19.3839C55.5357 20.8556 56.1601 21.9204 56.1601 21.9204H50.2285C50.2285 21.9204 50.8529 20.8558 50.8529 19.3839V15.5636C50.8529 14.0919 50.2285 12.9956 50.2285 12.9956C50.2285 12.9956 50.8529 11.8996 50.8529 10.4279V2.53653C50.8529 1.06484 50.2285 0 50.2285 0H64.7764C66.2436 0 67.3366 1.06457 67.3366 2.53653V12.7762C67.3366 14.2479 66.2439 15.3442 64.7764 15.3442L66.4621 19.5716C67.2427 21.2624 68.1478 21.9201 68.1478 21.9201H61.6544L61.6546 21.9204ZM61.3737 10.6471C62.0602 10.6471 62.6535 10.0835 62.6535 9.36334V5.9502C62.6535 5.26128 62.0602 4.69767 61.3737 4.69767H55.5357V10.6473L61.3737 10.6471Z"></path>
<path fill="#1D1D1E" d="M76.1073 21.9201H70.1758C70.1758 21.9201 70.8001 20.8241 70.8001 19.3524V2.56799C70.8001 1.0963 70.1758 0 70.1758 0H76.1073C76.1073 0 75.483 1.09603 75.483 2.56799V19.3524C75.483 20.8241 76.1073 21.9201 76.1073 21.9201Z"></path>
<path fill="#1D1D1E" d="M97.8988 0C97.8988 0 96.9621 1.06457 96.5563 2.53653L92.1544 19.3524L92.1857 19.321C91.7485 20.918 92.8098 21.9201 92.8098 21.9201H82.7574C82.7574 21.9201 83.7876 20.8868 83.3506 19.2898L83.4128 19.321L79.2919 2.53653C78.886 1.06484 77.9805 0 77.9805 0H84.3803C84.3803 0 84.0369 1.06457 84.4428 2.53653L87.7833 17.1918L91.4046 2.53653C91.8104 1.06484 91.4981 0 91.4981 0H97.898H97.8988Z"></path>
<path fill="#1D1D1E" d="M110.01 21.9201C110.01 21.9201 110.322 20.8556 109.917 19.3836L109.386 17.2542H103.454L102.955 19.3836C102.549 20.8553 102.892 21.9201 102.892 21.9201H96.4922C96.4922 21.9201 97.3978 20.8556 97.8036 19.3836L101.925 2.59918L101.862 2.63038C102.299 1.03338 101.269 0 101.269 0H111.322C111.322 0 110.26 1.00219 110.697 2.59918L110.666 2.56799L115.068 19.3836C115.474 20.8553 116.411 21.9201 116.411 21.9201H110.011H110.01ZM104.516 12.5571H108.231L106.295 4.72859L104.516 12.5571Z"></path>
<path fill="#1D1D1E" d="M131.02 21.9201H117.971C117.971 21.9201 118.595 20.8241 118.595 19.3524V2.53653C118.595 1.06484 117.971 0 117.971 0H124.214C124.214 0 123.59 1.06457 123.59 2.53653V17.223H128.492C130.583 17.223 131.645 15.9707 131.645 15.9707L131.02 21.9201Z"></path>
<path fill="#1D1D1E" d="M149.999 11.336V19.3524C149.999 20.8241 148.907 21.9201 147.439 21.9201H134.14L133.516 15.9705C133.516 15.9705 134.577 17.2227 136.669 17.2227H144.036C144.723 17.2227 145.316 16.6591 145.316 15.939V14.1229C145.316 13.4025 144.754 12.8391 144.036 12.8391H136.076C134.577 12.8391 133.516 11.1168 133.516 9.64515V2.53653C133.516 1.06484 134.577 0 136.076 0H149.375L149.999 5.94993C149.999 5.94993 148.938 4.6974 146.846 4.6974H139.479C138.76 4.6974 138.198 5.26101 138.198 5.94993V7.48428C138.198 8.20466 138.761 8.768 139.479 8.768H147.439C148.938 8.768 149.999 9.86404 149.999 11.336Z"></path>
</svg>
