<?xml version="1.0" encoding="UTF-8" standalone="no"?>
<!DOCTYPE svg PUBLIC "-//W3C//DTD SVG 1.1//EN" "http://www.w3.org/Graphics/SVG/1.1/DTD/svg11.dtd">
<svg width="100%" height="100%" viewBox="0 0 243 64" version="1.1" xmlns="http://www.w3.org/2000/svg" xmlns:xlink="http://www.w3.org/1999/xlink" xml:space="preserve" xmlns:serif="http://www.serif.com/" style="fill-rule:evenodd;clip-rule:evenodd;stroke-linejoin:round;stroke-miterlimit:2;">
    <path d="M0,59.36L32.94,0.88L105.68,0.88L77.21,50.74L82.9,63.5L66.11,63.5L52.68,36.01L66.77,36.57L77.69,16.11L43.7,16.24L27.12,43.24L48.87,43.66L57.79,58.29L-0,59.36Z" style="fill:rgb(250,249,249);fill-rule:nonzero;"/>
    <path d="M113.2,0.18L165.86,0L135.75,50.48L85.89,51.12L100.15,40.16L131.3,39.79L137.86,29.81L108.86,29.72L113.87,21.91L142.25,21.8L148.78,10.39L119.35,10.32L113.2,0.18Z" style="fill:rgb(250,249,249);fill-rule:nonzero;"/>
    <path d="M175.8,0.18L230.38,0.18L203.2,47.16L197.86,37.02L212,11.07L180.26,11.07L164.13,39.98L187.03,39.79L194.51,50.75L146.82,50.75L175.8,0.18Z" style="fill:rgb(250,249,249);fill-rule:nonzero;"/>
    <path d="M33.78,0.93L30.77,16.29L36.22,20.08L43.48,16.02L33.78,0.93Z" style="fill:rgb(212,210,210);fill-opacity:0.08;fill-rule:nonzero;"/>
    <path d="M53.72,37.61L67.06,41.31L65.93,37.34L53.72,37.61Z" style="fill:rgb(212,210,210);fill-opacity:0.08;fill-rule:nonzero;"/>
    <path d="M76.12,50.47L81.26,63.41L77.21,62.62L76.12,50.47Z" style="fill:rgb(212,210,210);fill-opacity:0.08;fill-rule:nonzero;"/>
    <path d="M199.2,37.25L202.91,38.6L203.08,46.12L199.2,37.25Z" style="fill:rgb(212,210,210);fill-opacity:0.08;fill-rule:nonzero;"/>
</svg>
