<?xml version="1.0" encoding="UTF-8"?>
<!-- Generated by Pixelmator Pro 3.6.18 -->
<svg width="322" height="71" viewBox="0 0 322 71" xmlns="http://www.w3.org/2000/svg">
    <g id="Layer2">
        <g id="Layer1-2">
            <path id="Path" fill="#ffffff" stroke="none" d="M 48.099998 27.639999 C 48.099998 27.639999 44.450001 15.330002 23.629999 15.330002 C 2.81 15.330002 1.52 26.040001 1.51 29.260002 C 1.51 31.060001 3.1 40.419998 19.950001 42.07 C 29.610001 43.02 31.200001 43.579998 31.18 45.07 C 31.18 46.18 29.68 47.380001 26.309999 47.420002 C 23.309999 47.420002 18.879999 46.900002 17.74 43.75 L 0 43.75 C 0 43.75 0.32 56.290001 23.610001 56.360001 C 44.360001 56.41 48.139999 49.440002 48.09 42.759998 C 48.09 42.759998 49.189999 33.240002 32.630001 30.52 C 23.799999 29.07 16.42 29.32 16.799999 25.98 C 17.18 22.639999 27.879999 24.200001 28.51 27.639999 Z"/>
            <path id="path1" fill="#ffffff" stroke="none" d="M 79.220001 28.200001 L 97.57 28.200001 C 97.57 28.200001 95.050003 15.360001 74 15.360001 C 54.610001 15.360001 50.810001 28.130001 50.810001 36.639999 C 50.810001 45.150002 57.459999 56.41 74 56.400002 C 95.209999 56.400002 97.610001 43.099998 97.599998 43.079998 L 79.080002 43.079998 C 79.080002 43.079998 79.269997 46.549999 73.970001 46.549999 C 68.669998 46.549999 67.080002 39.990002 67.089996 35.82 C 67.099998 31.200001 68.849998 24.91 74 24.91 C 79.150002 24.91 79.220001 28.200001 79.220001 28.200001 Z"/>
            <path id="path2" fill="#ffffff" stroke="none" d="M 127.260002 27.639999 L 116.059998 27.639999 L 116.059998 15.300003 L 100.480003 15.300003 L 100.480003 56.400002 L 116.059998 56.400002 L 116.059998 37.889999 L 127.260002 37.889999 L 127.260002 56.389999 L 142.850006 56.389999 L 142.850006 15.300003 L 127.269997 15.300003 L 127.260002 27.639999 Z"/>
            <path id="path3" fill="#ffffff" stroke="none" d="M 185.970001 26.060001 L 185.970001 15.290001 L 147.5 15.279999 L 147.5 56.389999 L 185.970001 56.389999 L 185.970001 45.66 L 163.309998 45.66 L 163.309998 40.880001 L 181.889999 40.880001 L 181.889999 30.790001 L 163.309998 30.790001 L 163.309998 26.060001 L 185.970001 26.060001 L 185.970001 26.060001 Z"/>
            <path id="path4" fill="#ffffff" stroke="none" d="M 248.919998 15.260002 L 248.919998 15.239998 L 233.110001 15.239998 L 233.110001 56.380001 L 233.970001 56.380001 L 233.970001 56.389999 L 266.450012 56.389999 L 266.450012 45.610001 L 248.919998 45.610001 L 248.919998 15.260002 L 248.919998 15.260002 Z"/>
            <path id="path5" fill="#ffffff" stroke="none" d="M 319.339996 19.910004 L 319.640015 19.910004 C 319.725922 19.926003 319.814087 19.926003 319.899994 19.910004 C 319.970642 19.874344 320.032196 19.823044 320.079987 19.760002 C 320.124359 19.673599 320.145081 19.576996 320.140015 19.480003 C 320.143951 19.395851 320.123077 19.312393 320.079987 19.239998 C 320.04303 19.181084 319.991333 19.132828 319.929993 19.099998 C 319.859222 19.069283 319.785522 19.04583 319.709991 19.029999 L 318.839996 19.029999 L 318.839996 20.029999 Z M 319.549988 18.580002 C 319.832764 18.55719 320.114899 18.631248 320.350006 18.790001 C 320.535858 18.952469 320.632538 19.194183 320.609985 19.440002 C 320.631744 19.662086 320.546326 19.881233 320.380005 20.029999 C 320.220337 20.159081 320.024811 20.235893 319.820007 20.25 L 320.690002 21.599998 L 320.179993 21.599998 L 319.350006 20.290001 L 318.839996 20.290001 L 318.839996 21.599998 L 318.369995 21.599998 L 318.369995 18.599998 Z M 317.399994 20.959999 C 317.505493 21.221481 317.661835 21.459412 317.859985 21.660004 C 318.051453 21.862312 318.283081 22.022392 318.540009 22.129997 C 318.808838 22.24379 319.098053 22.301628 319.390015 22.300003 C 319.681763 22.299736 319.970581 22.241966 320.23999 22.129997 C 320.493347 22.021194 320.721466 21.861176 320.910004 21.660004 C 321.108154 21.459412 321.264496 21.221481 321.369995 20.959999 C 321.480408 20.679962 321.53476 20.380974 321.529999 20.080002 C 321.533966 19.782333 321.479614 19.486771 321.369995 19.209999 C 321.262054 18.949821 321.105988 18.712334 320.910004 18.510002 C 320.71875 18.314499 320.49115 18.158241 320.23999 18.050003 C 319.970581 17.938034 319.681763 17.880264 319.390015 17.879997 C 318.816162 17.876366 318.264893 18.103355 317.859985 18.510002 C 317.664032 18.712334 317.507965 18.949821 317.399994 19.209999 C 317.186432 19.773788 317.186432 20.396217 317.399994 20.959999 Z M 317 19.059998 C 317.135742 18.755165 317.32547 18.477371 317.559998 18.239998 C 317.802948 18.008003 318.088074 17.824699 318.399994 17.699997 C 318.717377 17.569702 319.056915 17.501801 319.399994 17.5 C 319.743164 17.501038 320.082825 17.56897 320.399994 17.699997 C 321.026001 17.95005 321.526337 18.43959 321.790009 19.059998 C 321.92865 19.375145 322.000183 19.715706 322 20.059998 C 322.004639 20.758461 321.726959 21.429192 321.230011 21.919998 C 320.993713 22.15799 320.711273 22.345161 320.399994 22.470001 C 320.082214 22.597847 319.742523 22.662392 319.399994 22.660004 C 319.057556 22.661377 318.718079 22.59687 318.399994 22.470001 C 318.085693 22.34536 317.799927 22.158249 317.559998 21.919998 C 317.32547 21.682632 317.135742 21.404831 317 21.099998 C 316.864044 20.784004 316.792633 20.444 316.790009 20.099998 C 316.789825 19.755707 316.861359 19.415146 317 19.099998 Z"/>
            <path id="path6" fill="#ffffff" stroke="none" d="M 228.699997 26.060001 L 228.699997 15.290001 L 190.229996 15.279999 L 190.229996 56.389999 L 228.699997 56.389999 L 228.699997 45.66 L 206.039993 45.66 L 206.039993 40.880001 L 224.619995 40.880001 L 224.619995 30.790001 L 206.039993 30.790001 L 206.039993 26.060001 L 228.699997 26.060001 L 228.699997 26.060001 Z"/>
            <path id="path7" fill="#ffffff" stroke="none" d="M 316.779999 27.540001 C 316.779999 27.540001 313.130005 15.199997 292.309998 15.199997 C 271.48999 15.199997 270.209991 25.93 270.200012 29.200001 C 270.200012 31 271.790009 40.380001 288.630005 42.040001 C 298.290009 42.990002 299.880005 43.549999 299.859985 45.040001 C 299.859985 46.16 298.359985 47.350002 295 47.400002 C 292 47.400002 287.559998 46.880001 286.420013 43.720001 L 268.679993 43.720001 C 268.679993 43.720001 269 56.260002 292.290009 56.32 C 313.040009 56.380001 316.829987 49.389999 316.779999 42.700001 C 316.779999 42.700001 317.869995 33.16 301.320007 30.439999 C 292.480011 28.98 285.100006 29.23 285.480011 25.880001 C 285.859985 22.529999 296.559998 24.130001 297.190002 27.549999 Z"/>
        </g>
    </g>
</svg>
